<svg id="Calque_17" data-name="Calque 17" xmlns="http://www.w3.org/2000/svg" viewBox="0 0 245.12 248.95"><defs><style>.cls-1{fill:#0072ce;}.cls-2{fill:#4884d9;}.cls-3{fill:#fff;}</style></defs><title>Icone_azur_Health</title><path class="cls-1" d="M243.25,182.11c-1.08-13.06-3.51-45.37-3.51-45.37s0-.61-0.06-1.66a3.67,3.67,0,0,1-.34-0.91,1.82,1.82,0,0,1,.27-0.14c-0.71-10.32-3.08-47.24-4.28-63.71C234,51,227.12,4.26,227.12,4.26c-15.05,6.3-95.79,11.3-130,12.39S6.22,26.17,6.22,26.17c1.94,4.9,5.51,25.18,7.7,61.14l6.87,82.18c2.74,32.33,8.65,83.72,8.65,83.72C57,245.6,119,242,169,239.26s81.14-9.79,81.14-9.79C247.69,219.61,243.25,182.11,243.25,182.11Z" transform="translate(-5 -4.26)"/><path class="cls-2" d="M235.26,70.32C233.91,51,227,4.26,227,4.26c-15.06,6.3-95.8,11.3-130,12.39S5,26.66,5,26.66c1.94,4.9,6.65,24.68,8.84,60.65l6.86,82.18c0.8,9,1.82,19.52,2.87,30.05,67.07-36.24,144.69-79,212.56-117.31C235.79,77.69,235.48,73.58,235.26,70.32Z" transform="translate(-5 -4.26)"/><path class="cls-3" d="M167,144.33a1.61,1.61,0,0,0,.25,1,2.06,2.06,0,0,0,.93.65,6.11,6.11,0,0,0,1.75.42,25.41,25.41,0,0,0,2.87.13,24.65,24.65,0,0,0,2.77-.13,7,7,0,0,0,1.79-.42,2.1,2.1,0,0,0,.94-0.65,1.64,1.64,0,0,0,.26-1V96.19a1.47,1.47,0,0,0-.32-0.94,2.19,2.19,0,0,0-1.08-.69,10.46,10.46,0,0,0-2.06-.41c-0.86-.09-1.94-0.13-3.29-0.13s-2.43,0-3.27.13a11.79,11.79,0,0,0-2.1.41,2,2,0,0,0-1.06.69,1.42,1.42,0,0,0-.31.94v32a30.81,30.81,0,0,1-5.58,5.5,9.06,9.06,0,0,1-5.19,1.88,7.8,7.8,0,0,1-3.63-.79,6.84,6.84,0,0,1-2.54-2.21,9.77,9.77,0,0,1-1.46-3.41,26.51,26.51,0,0,1-.5-5.78V96.19a1.37,1.37,0,0,0-.33-0.94,2.16,2.16,0,0,0-1.12-.69,10.32,10.32,0,0,0-2.07-.41c-0.86-.09-2-0.13-3.28-0.13s-2.39,0-3.28.13a11,11,0,0,0-2.1.41,2,2,0,0,0-1.08.69,1.48,1.48,0,0,0-.3.94v29.48a41,41,0,0,0,.88,9.2,18.5,18.5,0,0,0,3,6.5,14.4,14.4,0,0,0,5.45,4.42,19.15,19.15,0,0,0,8.37,1.63,18.18,18.18,0,0,0,8.51-2.16,30.71,30.71,0,0,0,8.17-6.48v5.55Z" transform="translate(-5 -4.26)"/><path class="cls-3" d="M71,97.62a16.2,16.2,0,0,0-6.63-3.4,37.72,37.72,0,0,0-9.68-1.09,38.18,38.18,0,0,0-6.19.5A43.13,43.13,0,0,0,43,94.94a36.26,36.26,0,0,0-4.42,1.74A10.37,10.37,0,0,0,36,98.43a4.12,4.12,0,0,0-1,1.75,10.29,10.29,0,0,0-.27,2.64,19.05,19.05,0,0,0,.15,2.27,7.85,7.85,0,0,0,.48,1.72A3,3,0,0,0,36,107.9a1.75,1.75,0,0,0,1.06.37,5.1,5.1,0,0,0,2.25-.75c0.9-.49,2.06-1.06,3.44-1.67a35.84,35.84,0,0,1,4.7-1.67,22.59,22.59,0,0,1,6.06-.75,14.65,14.65,0,0,1,4.35.53,5.92,5.92,0,0,1,2.81,1.67,7,7,0,0,1,1.52,2.83,16,16,0,0,1,.44,4v2.92H58a59.17,59.17,0,0,0-11.26,1,25.07,25.07,0,0,0-8.12,3,13.65,13.65,0,0,0-4.94,5.14A15.27,15.27,0,0,0,32,131.77a16.23,16.23,0,0,0,1.27,6.78,13.27,13.27,0,0,0,3.66,4.9,16.2,16.2,0,0,0,5.56,3,24.15,24.15,0,0,0,7,1A19.87,19.87,0,0,0,58,145.63a22.34,22.34,0,0,0,6.77-5v3.82a1.61,1.61,0,0,0,.48,1.21,3,3,0,0,0,1.52.6,21.11,21.11,0,0,0,3.57.19,19.9,19.9,0,0,0,3.41-.19,3.73,3.73,0,0,0,1.71-.6,1.5,1.5,0,0,0,.54-1.21V112.12a26.73,26.73,0,0,0-1.18-8.59A13.12,13.12,0,0,0,71,97.62Zm-8.37,34.46a21.16,21.16,0,0,1-4.88,4.28,10,10,0,0,1-5.26,1.44,7.66,7.66,0,0,1-5.32-1.72,6,6,0,0,1-1.92-4.74,7,7,0,0,1,.7-3.17,5.94,5.94,0,0,1,2.12-2.36,11.34,11.34,0,0,1,3.8-1.46,26.73,26.73,0,0,1,5.57-.47h5.19v8.19Z" transform="translate(-5 -4.26)"/><path class="cls-3" d="M122.6,136.29a1.57,1.57,0,0,0-.76-0.81,1.81,1.81,0,0,0-.87-0.21H102l17.89-27.8c0.35-.56.66-1.09,1-1.61a9.69,9.69,0,0,0,.58-1.51,8.32,8.32,0,0,0,.31-1.59,11.59,11.59,0,0,0,.1-1.9V98.18a8.22,8.22,0,0,0-.16-1.89,4,4,0,0,0-.51-1.19,2.12,2.12,0,0,0-.92-0.59,4.27,4.27,0,0,0-1.27-.16H89.56a1.83,1.83,0,0,0-1,.27,2,2,0,0,0-.69.87,6.49,6.49,0,0,0-.44,1.69c-0.06.7-.12,1.58-0.12,2.63a10.63,10.63,0,0,0,.62,4.16,1.9,1.9,0,0,0,1.67,1.29h17l-18,27.85a13.33,13.33,0,0,0-1.06,1.68,9.86,9.86,0,0,0-.64,1.48,7.4,7.4,0,0,0-.32,1.51,15.52,15.52,0,0,0-.1,1.75V142a5.14,5.14,0,0,0,.81,3.19,2.63,2.63,0,0,0,2.23,1H121a1.65,1.65,0,0,0,1-.26,1.46,1.46,0,0,0,.69-0.87,6.1,6.1,0,0,0,.44-1.77,19.47,19.47,0,0,0,.17-2.67,18.21,18.21,0,0,0-.17-2.65A4.78,4.78,0,0,0,122.6,136.29Z" transform="translate(-5 -4.26)"/><path class="cls-3" d="M223.13,97.59a12.41,12.41,0,0,0-.15-1.71c-0.09-.39-0.18-0.67-0.24-0.89a2.22,2.22,0,0,0-.44-0.59,2.78,2.78,0,0,0-1-.52,8.14,8.14,0,0,0-1.49-.41,14.75,14.75,0,0,0-1.64-.28c-0.58-.05-1.07-0.07-1.5-0.07a12.18,12.18,0,0,0-3.06.38,10,10,0,0,0-3,1.43,20.24,20.24,0,0,0-3.19,2.78,37.25,37.25,0,0,0-3.56,4.47v-6a1.56,1.56,0,0,0-.29-0.94,1.94,1.94,0,0,0-.9-0.69,6.94,6.94,0,0,0-1.76-.41,25.43,25.43,0,0,0-2.87-.13,24,24,0,0,0-2.74.13,8.71,8.71,0,0,0-1.81.41,1.8,1.8,0,0,0-1,.69,1.45,1.45,0,0,0-.27.94v48.14a1.31,1.31,0,0,0,.34,1,2.5,2.5,0,0,0,1.1.65,8.75,8.75,0,0,0,2.07.42c0.86,0.09,1.93.13,3.29,0.13s2.43,0,3.26-.13a9.54,9.54,0,0,0,2.11-.42,2.48,2.48,0,0,0,1.08-.65,1.44,1.44,0,0,0,.35-1v-30a41.34,41.34,0,0,1,2.82-4,16.2,16.2,0,0,1,2.56-2.58,9.05,9.05,0,0,1,2.33-1.44,5.7,5.7,0,0,1,2.24-.46,7.12,7.12,0,0,1,1.79.19c0.58,0.11,1.07.27,1.51,0.39s0.83,0.3,1.19.42a3.57,3.57,0,0,0,1,.17,1.27,1.27,0,0,0,.88-0.25,1.8,1.8,0,0,0,.56-1,10.78,10.78,0,0,0,.34-1.94c0.05-.82.1-1.88,0.1-3.19S223.18,98.34,223.13,97.59Z" transform="translate(-5 -4.26)"/><path class="cls-3" d="M110,199a0.5,0.5,0,0,1-.39.51,3.6,3.6,0,0,1-.57.13,7.45,7.45,0,0,1-1.79,0,3.65,3.65,0,0,1-.56-0.13,0.56,0.56,0,0,1-.3-0.21,0.54,0.54,0,0,1-.09-0.3v-12.4H93.54V199a0.49,0.49,0,0,1-.39.51,3.53,3.53,0,0,1-.57.13,7.44,7.44,0,0,1-1.78,0,3.49,3.49,0,0,1-.58-0.13,0.55,0.55,0,0,1-.3-0.21,0.54,0.54,0,0,1-.09-0.3V172.19a0.5,0.5,0,0,1,.39-0.51,2.84,2.84,0,0,1,.58-0.13,7.3,7.3,0,0,1,1.78,0,2.85,2.85,0,0,1,.57.13,0.54,0.54,0,0,1,.3.21,0.55,0.55,0,0,1,.08.3v11.2h12.73v-11.2a0.53,0.53,0,0,1,.09-0.3,0.54,0.54,0,0,1,.3-0.21,2.91,2.91,0,0,1,.56-0.13,7.32,7.32,0,0,1,1.79,0,2.89,2.89,0,0,1,.57.13,0.5,0.5,0,0,1,.39.51V199Z" transform="translate(-5 -4.26)"/><path class="cls-3" d="M131.32,198.05a5.34,5.34,0,0,1,0,.68,1.58,1.58,0,0,1-.16.49,0.78,0.78,0,0,1-.25.28,0.57,0.57,0,0,1-.32.09H117.14a1.55,1.55,0,0,1-.94-0.33,1.39,1.39,0,0,1-.44-1.18V173.13a1.39,1.39,0,0,1,.44-1.18,1.54,1.54,0,0,1,.94-0.34h13.27a0.56,0.56,0,0,1,.31.09,0.62,0.62,0,0,1,.22.28,2.54,2.54,0,0,1,.15.49,5,5,0,0,1,.05.73,4.69,4.69,0,0,1-.05.68,2.31,2.31,0,0,1-.15.47,0.62,0.62,0,0,1-.22.27,0.57,0.57,0,0,1-.31.09H119.47v8.77h9.38a0.57,0.57,0,0,1,.31.1,0.93,0.93,0,0,1,.24.27,1.54,1.54,0,0,1,.14.48,5.69,5.69,0,0,1,0,.71,5.06,5.06,0,0,1,0,.67,1.43,1.43,0,0,1-.14.45,0.58,0.58,0,0,1-.55.32h-9.38v10h11.09a0.6,0.6,0,0,1,.32.09,0.84,0.84,0,0,1,.25.27,1.5,1.5,0,0,1,.16.48A5.69,5.69,0,0,1,131.32,198.05Z" transform="translate(-5 -4.26)"/><path class="cls-3" d="M159.48,198.27a2.76,2.76,0,0,1,.18.77,0.54,0.54,0,0,1-.16.44,1,1,0,0,1-.58.19c-0.27,0-.63,0-1.07,0s-0.81,0-1.07,0a2.5,2.5,0,0,1-.6-0.11,0.64,0.64,0,0,1-.3-0.2,1.42,1.42,0,0,1-.18-0.32l-2.4-6.81H141.68L139.38,199a1.22,1.22,0,0,1-.17.34,1,1,0,0,1-.32.23,1.78,1.78,0,0,1-.58.14,9.4,9.4,0,0,1-1,0,7.54,7.54,0,0,1-1-.05,1,1,0,0,1-.56-0.21,0.54,0.54,0,0,1-.15-0.44,2.57,2.57,0,0,1,.19-0.76l9.38-26a1.07,1.07,0,0,1,.23-0.39,0.88,0.88,0,0,1,.41-0.24,3,3,0,0,1,.69-0.12c0.28,0,.64,0,1.07,0s0.84,0,1.15,0a3.29,3.29,0,0,1,.73.12,1,1,0,0,1,.43.25,1.31,1.31,0,0,1,.24.4Zm-12-22.93h0l-4.82,13.94h9.72Z" transform="translate(-5 -4.26)"/><path class="cls-3" d="M178.65,198a5.43,5.43,0,0,1,0,.73,2,2,0,0,1-.14.49,0.76,0.76,0,0,1-.24.3,0.55,0.55,0,0,1-.33.1H165.53a1.53,1.53,0,0,1-.94-0.33,1.39,1.39,0,0,1-.44-1.18V172.19a0.49,0.49,0,0,1,.39-0.51,2.71,2.71,0,0,1,.58-0.13,7.26,7.26,0,0,1,1.78,0,3,3,0,0,1,.57.13,0.57,0.57,0,0,1,.3.21,0.58,0.58,0,0,1,.08.3v24.18h10a0.6,0.6,0,0,1,.33.1,0.85,0.85,0,0,1,.24.29,1.63,1.63,0,0,1,.14.48A5.57,5.57,0,0,1,178.65,198Z" transform="translate(-5 -4.26)"/><path class="cls-3" d="M197,173.22a5.11,5.11,0,0,1,0,.71,1.74,1.74,0,0,1-.14.48,0.7,0.7,0,0,1-.24.27,0.57,0.57,0,0,1-.31.08h-7.87V199a0.5,0.5,0,0,1-.39.51,3.78,3.78,0,0,1-.57.13,7.41,7.41,0,0,1-1.78,0,3.32,3.32,0,0,1-.58-0.13,0.52,0.52,0,0,1-.3-0.21,0.51,0.51,0,0,1-.09-0.3V174.78h-7.87a0.56,0.56,0,0,1-.32-0.08,0.58,0.58,0,0,1-.22-0.27,1.88,1.88,0,0,1-.14-0.48,4.26,4.26,0,0,1-.05-0.71,4.44,4.44,0,0,1,.05-0.72,2,2,0,0,1,.14-0.51,0.57,0.57,0,0,1,.22-0.28,0.54,0.54,0,0,1,.32-0.09h19.45a0.55,0.55,0,0,1,.31.09,0.68,0.68,0,0,1,.24.28,1.88,1.88,0,0,1,.14.51A5.32,5.32,0,0,1,197,173.22Z" transform="translate(-5 -4.26)"/><path class="cls-3" d="M221.22,199a0.59,0.59,0,0,1-.09.3,0.6,0.6,0,0,1-.3.21,3.75,3.75,0,0,1-.58.13,5.66,5.66,0,0,1-.87.05,5.76,5.76,0,0,1-.91-0.05,3.33,3.33,0,0,1-.56-0.13,0.52,0.52,0,0,1-.3-0.21,0.51,0.51,0,0,1-.09-0.3v-12.4H204.8V199a0.61,0.61,0,0,1-.08.3,0.6,0.6,0,0,1-.3.21,3.74,3.74,0,0,1-.58.13,7.39,7.39,0,0,1-1.78,0,3.35,3.35,0,0,1-.58-0.13,0.52,0.52,0,0,1-.3-0.21,0.51,0.51,0,0,1-.09-0.3V172.19a0.5,0.5,0,0,1,.39-0.51,2.74,2.74,0,0,1,.58-0.13,7.25,7.25,0,0,1,1.78,0,3,3,0,0,1,.58.13,0.58,0.58,0,0,1,.3.21,0.6,0.6,0,0,1,.08.3v11.2h12.73v-11.2a0.5,0.5,0,0,1,.39-0.51,2.69,2.69,0,0,1,.56-0.13,5.64,5.64,0,0,1,.91-0.05,5.54,5.54,0,0,1,.87.05,3,3,0,0,1,.58.13,0.5,0.5,0,0,1,.39.51V199Z" transform="translate(-5 -4.26)"/></svg>