<svg viewBox="0 0 246 249" fill="none" xmlns="http://www.w3.org/2000/svg">
<g clip-path="url(#clip0_11_59)">
<path d="M238.03 177.85C236.95 164.79 234.52 132.48 234.52 132.48C234.52 132.48 234.52 131.87 234.46 130.82C234.307 130.533 234.193 130.227 234.12 129.91C234.206 129.856 234.296 129.809 234.39 129.77C233.68 119.45 231.31 82.53 230.11 66.06C228.78 46.74 221.9 0 221.9 0C206.85 6.3 126.11 11.3 91.9 12.39C57.69 13.48 1 21.91 1 21.91C2.94 26.81 6.51 47.09 8.7 83.05L15.57 165.23C18.31 197.56 24.22 248.95 24.22 248.95C51.78 241.34 113.78 237.74 163.78 235C213.78 232.26 244.92 225.21 244.92 225.21C242.47 215.35 238.03 177.85 238.03 177.85Z" fill="#0072CE"/>
<path d="M230.26 66.06C228.91 46.74 222 0 222 0C206.94 6.3 126.2 11.3 92 12.39C57.8 13.48 0 22.4 0 22.4C1.94 27.3 6.65 47.08 8.84 83.05L15.7 165.23C16.5 174.23 17.52 184.75 18.57 195.28C85.64 159.04 163.26 116.28 231.13 77.97C230.79 73.43 230.48 69.32 230.26 66.06Z" fill="#4884D9"/>
<path d="M162 140.07C161.976 140.422 162.067 140.773 162.26 141.07C162.505 141.371 162.831 141.597 163.2 141.72C163.759 141.947 164.349 142.089 164.95 142.14C165.907 142.237 166.868 142.281 167.83 142.27C168.755 142.279 169.68 142.235 170.6 142.14C171.213 142.079 171.814 141.938 172.39 141.72C172.757 141.594 173.083 141.369 173.33 141.07C173.522 140.773 173.613 140.422 173.59 140.07V91.9298C173.594 91.5906 173.485 91.2597 173.28 90.9898C172.991 90.6588 172.613 90.419 172.19 90.2998C171.538 90.0984 170.868 89.9611 170.19 89.8898C169.33 89.7998 168.25 89.7598 166.89 89.7598C165.53 89.7598 164.46 89.7598 163.62 89.8898C162.906 89.9617 162.199 90.099 161.51 90.2998C161.091 90.409 160.719 90.6512 160.45 90.9898C160.237 91.2558 160.127 91.5894 160.14 91.9298V123.93C158.522 125.993 156.647 127.841 154.56 129.43C153.068 130.581 151.253 131.238 149.37 131.31C148.114 131.343 146.869 131.072 145.74 130.52C144.72 130.01 143.846 129.25 143.2 128.31C142.501 127.276 142.005 126.119 141.74 124.9C141.364 122.997 141.196 121.059 141.24 119.12V91.9298C141.252 91.5861 141.134 91.2506 140.91 90.9898C140.618 90.6489 140.226 90.4077 139.79 90.2998C139.116 90.0937 138.422 89.9563 137.72 89.8898C136.86 89.7998 135.72 89.7598 134.44 89.7598C133.16 89.7598 132.05 89.7598 131.16 89.8898C130.448 89.9579 129.745 90.0952 129.06 90.2998C128.634 90.4051 128.255 90.6475 127.98 90.9898C127.775 91.2596 127.67 91.5913 127.68 91.9298V121.41C127.626 124.5 127.921 127.586 128.56 130.61C129.125 132.952 130.144 135.16 131.56 137.11C132.974 139.012 134.84 140.531 136.99 141.53C139.622 142.695 142.483 143.252 145.36 143.16C148.331 143.146 151.252 142.404 153.87 141C156.943 139.327 159.704 137.134 162.03 134.52V140.07H162Z" fill="white"/>
<path d="M66 93.3599C64.0882 91.7267 61.8213 90.5625 59.38 89.9599C56.214 89.1797 52.9603 88.8134 49.7 88.8699C47.6265 88.8678 45.5563 89.035 43.51 89.3699C41.6467 89.6858 39.8061 90.1234 38 90.6799C36.4938 91.1636 35.0207 91.7448 33.59 92.4199C32.6445 92.8712 31.7715 93.461 31 94.1699C30.528 94.6622 30.1845 95.2633 30 95.9199C29.8024 96.7855 29.7151 97.6725 29.74 98.5599C29.7431 99.3187 29.7898 100.077 29.88 100.83C29.9741 101.42 30.1351 101.997 30.36 102.55C30.4935 102.955 30.7117 103.326 31 103.64C31.3035 103.876 31.6758 104.006 32.06 104.01C32.8586 103.94 33.6294 103.683 34.31 103.26C35.21 102.77 36.37 102.2 37.74 101.59C39.2699 100.926 40.8436 100.368 42.45 99.9199C44.4269 99.3972 46.4654 99.1449 48.51 99.1699C49.9784 99.1272 51.4449 99.3059 52.86 99.6999C53.9351 99.9814 54.909 100.56 55.67 101.37C56.3892 102.183 56.9096 103.152 57.19 104.2C57.5024 105.51 57.6502 106.854 57.63 108.2V111.12H53C49.2201 111.093 45.4462 111.428 41.73 112.12C38.8698 112.641 36.1222 113.656 33.61 115.12C31.5377 116.366 29.8331 118.14 28.67 120.26C27.5277 122.503 26.9542 124.993 27 127.51C26.9336 129.835 27.3667 132.147 28.27 134.29C29.0951 136.184 30.3478 137.861 31.93 139.19C33.5687 140.545 35.4579 141.564 37.49 142.19C39.7615 142.866 42.1202 143.203 44.49 143.19C47.4263 143.219 50.3325 142.597 53 141.37C55.5507 140.148 57.845 138.451 59.76 136.37V140.19C59.752 140.414 59.7905 140.637 59.8732 140.845C59.9558 141.054 60.0807 141.242 60.24 141.4C60.6814 141.737 61.2076 141.944 61.76 142C62.9425 142.164 64.1368 142.228 65.33 142.19C66.4667 142.224 67.6043 142.161 68.73 142C69.3404 141.942 69.9273 141.736 70.44 141.4C70.6161 141.253 70.7563 141.067 70.8498 140.857C70.9434 140.648 70.988 140.419 70.98 140.19V107.86C71.0513 104.951 70.6494 102.05 69.79 99.2699C69.0889 96.9914 67.7784 94.9477 66 93.3599V93.3599ZM57.63 127.82C56.2332 129.489 54.5872 130.933 52.75 132.1C51.164 133.058 49.3429 133.557 47.49 133.54C45.5633 133.657 43.6633 133.043 42.17 131.82C41.5206 131.22 41.0117 130.484 40.6797 129.665C40.3478 128.845 40.2011 127.963 40.25 127.08C40.2286 125.984 40.465 124.898 40.94 123.91C41.4222 122.947 42.1544 122.132 43.06 121.55C44.2287 120.839 45.5159 120.344 46.86 120.09C48.6952 119.739 50.5621 119.582 52.43 119.62H57.62V127.81L57.63 127.82Z" fill="white"/>
<path d="M117.6 132.03C117.452 131.678 117.182 131.39 116.84 131.22C116.572 131.079 116.273 131.006 115.97 131.01H96.9999L114.89 103.21C115.24 102.65 115.55 102.12 115.89 101.6C116.125 101.114 116.319 100.609 116.47 100.09C116.631 99.5731 116.734 99.04 116.78 98.5003C116.874 97.8716 116.91 97.2357 116.89 96.6003V93.9203C116.91 93.2863 116.856 92.652 116.73 92.0303C116.624 91.6075 116.448 91.2053 116.21 90.8403C115.961 90.5655 115.644 90.3619 115.29 90.2503C114.877 90.133 114.449 90.0791 114.02 90.0903H84.5599C84.2075 90.0816 83.8601 90.1754 83.5599 90.3603C83.2484 90.5751 83.0082 90.8781 82.87 91.2303C82.6459 91.7706 82.4978 92.3394 82.4299 92.9203C82.3599 93.6203 82.3099 94.5003 82.3099 95.5503C82.2388 96.9644 82.4496 98.3785 82.9299 99.7103C83.0508 100.066 83.2736 100.377 83.5706 100.607C83.8676 100.836 84.2256 100.973 84.5999 101H101.65L83.65 128.85C83.2525 129.383 82.8948 129.945 82.58 130.53C82.3289 131.006 82.1149 131.501 81.94 132.01C81.7813 132.501 81.6774 133.007 81.6299 133.52C81.5547 134.101 81.518 134.685 81.5199 135.27V137.74C81.4322 138.865 81.7206 139.987 82.3399 140.93C82.6014 141.264 82.94 141.53 83.3267 141.704C83.7134 141.878 84.1366 141.956 84.5599 141.93H116C116.353 141.953 116.703 141.862 117 141.67C117.336 141.483 117.584 141.17 117.69 140.8C117.921 140.235 118.066 139.639 118.12 139.03C118.241 138.146 118.297 137.253 118.29 136.36C118.301 135.474 118.244 134.588 118.12 133.71C118.052 133.123 117.876 132.553 117.6 132.03Z" fill="white"/>
<path d="M218.13 93.3304C218.119 92.758 218.072 92.1869 217.99 91.6204C217.89 91.2304 217.8 90.9504 217.74 90.7304C217.625 90.5121 217.476 90.3131 217.3 90.1404C217.004 89.9036 216.664 89.7269 216.3 89.6204C215.818 89.4368 215.319 89.2995 214.81 89.2104C214.269 89.0863 213.722 88.9928 213.17 88.9304C212.59 88.8804 212.1 88.8604 211.67 88.8604C210.638 88.8569 209.61 88.9846 208.61 89.2404C207.537 89.5464 206.523 90.0298 205.61 90.6704C204.454 91.4809 203.388 92.4129 202.43 93.4504C201.126 94.8459 199.933 96.3404 198.86 97.9204V91.9204C198.869 91.5822 198.763 91.251 198.56 90.9804C198.343 90.6626 198.032 90.4212 197.67 90.2904C197.107 90.0778 196.519 89.94 195.92 89.8804C194.963 89.783 194.002 89.7396 193.04 89.7504C192.125 89.7415 191.21 89.7849 190.3 89.8804C189.684 89.9522 189.077 90.0897 188.49 90.2904C188.088 90.3991 187.735 90.6427 187.49 90.9804C187.294 91.253 187.198 91.5853 187.22 91.9204V140.06C187.204 140.242 187.226 140.424 187.285 140.596C187.343 140.768 187.437 140.926 187.56 141.06C187.864 141.369 188.243 141.593 188.66 141.71C189.331 141.932 190.026 142.073 190.73 142.13C191.59 142.22 192.66 142.26 194.02 142.26C195.38 142.26 196.45 142.26 197.28 142.13C197.997 142.07 198.705 141.93 199.39 141.71C199.801 141.593 200.174 141.369 200.47 141.06C200.71 140.784 200.835 140.426 200.82 140.06V110.06C201.68 108.673 202.622 107.337 203.64 106.06C204.392 105.109 205.248 104.244 206.19 103.48C206.894 102.886 207.683 102.401 208.53 102.04C209.238 101.739 210 101.583 210.77 101.58C211.372 101.567 211.974 101.631 212.56 101.77C213.14 101.88 213.63 102.04 214.07 102.16C214.51 102.28 214.9 102.46 215.26 102.58C215.584 102.684 215.92 102.742 216.26 102.75C216.574 102.777 216.887 102.688 217.14 102.5C217.435 102.239 217.635 101.887 217.71 101.5C217.885 100.866 217.999 100.216 218.05 99.5604C218.1 98.7404 218.15 97.6804 218.15 96.3704C218.15 95.0604 218.18 94.0804 218.13 93.3304Z" fill="white"/>
<path d="M147.16 198.54C147.164 198.824 147.148 199.108 147.11 199.39C147.087 199.604 147.022 199.811 146.92 200C146.851 200.143 146.744 200.264 146.61 200.35C146.493 200.423 146.358 200.461 146.22 200.46H129.44C129.014 200.454 128.602 200.307 128.27 200.04C128.065 199.858 127.907 199.63 127.81 199.374C127.712 199.118 127.678 198.842 127.71 198.57V167.39C127.679 167.118 127.713 166.843 127.811 166.587C127.908 166.331 128.066 166.102 128.27 165.92C128.602 165.654 129.014 165.506 129.44 165.5H146C146.138 165.498 146.273 165.536 146.39 165.61C146.515 165.697 146.612 165.819 146.67 165.96C146.754 166.156 146.814 166.36 146.85 166.57C146.895 166.868 146.915 167.169 146.91 167.47C146.914 167.755 146.894 168.039 146.85 168.32C146.816 168.524 146.756 168.722 146.67 168.91C146.614 169.05 146.517 169.169 146.39 169.25C146.272 169.321 146.138 169.359 146 169.36H132.36V180.36H144.09C144.229 180.358 144.366 180.4 144.48 180.48C144.605 180.569 144.707 180.685 144.78 180.82C144.871 181.009 144.929 181.212 144.95 181.42C144.986 181.715 145.003 182.013 145 182.31C145.003 182.591 144.986 182.872 144.95 183.15C144.926 183.345 144.868 183.535 144.78 183.71C144.713 183.841 144.609 183.949 144.48 184.02C144.361 184.087 144.227 184.122 144.09 184.12H132.36V196.63H146.22C146.358 196.629 146.493 196.667 146.61 196.74C146.742 196.824 146.849 196.941 146.92 197.08C147.023 197.265 147.088 197.469 147.11 197.68C147.147 197.965 147.163 198.253 147.16 198.54V198.54Z" fill="white"/>
<path d="M178 199.74C178.004 199.871 177.976 200.001 177.92 200.12C177.838 200.248 177.715 200.344 177.57 200.39C177.324 200.473 177.069 200.527 176.81 200.55C176.378 200.59 175.944 200.607 175.51 200.6C175.129 200.606 174.749 200.589 174.37 200.55C174.123 200.526 173.881 200.469 173.65 200.38C173.481 200.307 173.336 200.19 173.23 200.04C173.121 199.872 173.034 199.69 172.97 199.5L169.76 191.26C169.38 190.32 168.987 189.46 168.58 188.68C168.202 187.943 167.713 187.269 167.13 186.68C166.562 186.104 165.881 185.652 165.13 185.35C164.26 185.015 163.332 184.856 162.4 184.88H159.29V199.74C159.291 199.876 159.249 200.009 159.17 200.12C159.069 200.239 158.938 200.329 158.79 200.38C158.561 200.451 158.327 200.505 158.09 200.54C157.719 200.59 157.345 200.614 156.97 200.61C156.595 200.614 156.221 200.59 155.85 200.54C155.607 200.503 155.366 200.45 155.13 200.38C154.983 200.334 154.853 200.243 154.76 200.12C154.686 200.007 154.648 199.875 154.65 199.74V167.39C154.619 167.118 154.653 166.843 154.751 166.587C154.848 166.331 155.006 166.102 155.21 165.92C155.542 165.653 155.954 165.506 156.38 165.5H163.81C164.7 165.5 165.42 165.5 166.01 165.56C166.6 165.62 167.12 165.65 167.59 165.71C168.829 165.909 170.034 166.279 171.17 166.81C172.154 167.278 173.04 167.93 173.78 168.73C174.481 169.501 175.018 170.406 175.36 171.39C175.764 172.462 175.98 173.595 176 174.74C176.015 175.809 175.856 176.872 175.53 177.89C175.229 178.784 174.764 179.615 174.16 180.34C173.552 181.065 172.833 181.689 172.03 182.19C171.156 182.736 170.223 183.182 169.25 183.52C169.816 183.776 170.341 184.113 170.81 184.52C171.3 184.93 171.74 185.396 172.12 185.91C172.557 186.495 172.941 187.118 173.27 187.77C173.63 188.48 174 189.27 174.35 190.15L177.48 197.86C177.74 198.51 177.9 198.96 177.97 199.22C177.999 199.392 178.009 199.566 178 199.74V199.74ZM171 175.19C171.043 173.965 170.723 172.754 170.08 171.71C169.333 170.689 168.237 169.977 167 169.71C166.502 169.576 165.994 169.486 165.48 169.44C164.91 169.44 164.17 169.36 163.24 169.36H159.33V181.14H163.87C164.947 181.161 166.02 181.013 167.05 180.7C167.869 180.44 168.627 180.018 169.28 179.46C169.856 178.943 170.305 178.3 170.59 177.58C170.873 176.819 171.012 176.012 171 175.2V175.19Z" fill="white"/>
<path d="M206.24 175.74C206.264 177.357 205.971 178.964 205.38 180.47C204.828 181.832 203.985 183.057 202.91 184.06C201.765 185.089 200.42 185.872 198.96 186.36C197.158 186.936 195.272 187.21 193.38 187.17H189.38V199.74C189.382 199.876 189.34 200.009 189.26 200.12C189.16 200.24 189.028 200.329 188.88 200.38C188.651 200.451 188.417 200.504 188.18 200.54C187.809 200.59 187.434 200.613 187.06 200.61C186.685 200.613 186.311 200.59 185.94 200.54C185.697 200.503 185.456 200.449 185.22 200.38C185.073 200.333 184.944 200.242 184.85 200.12C184.777 200.006 184.739 199.874 184.74 199.74V167.51C184.713 167.227 184.75 166.941 184.849 166.674C184.948 166.408 185.105 166.167 185.31 165.97C185.668 165.677 186.117 165.518 186.58 165.52H194.06C194.82 165.52 195.54 165.52 196.24 165.61C197.068 165.69 197.889 165.824 198.7 166.01C199.718 166.248 200.693 166.643 201.59 167.18C203.53 168.275 204.986 170.06 205.67 172.18C206.05 173.328 206.242 174.53 206.24 175.74V175.74ZM201.35 176.12C201.393 174.882 201.121 173.653 200.56 172.55C200.095 171.671 199.405 170.932 198.56 170.41C197.816 169.957 196.99 169.655 196.13 169.52C195.319 169.398 194.5 169.335 193.68 169.33H189.39V183.33H193.58C194.77 183.366 195.956 183.183 197.08 182.79C197.958 182.462 198.756 181.95 199.42 181.29C200.058 180.636 200.546 179.851 200.85 178.99C201.182 178.069 201.352 177.098 201.35 176.12V176.12Z" fill="white"/>
<path d="M226.054 174.266C226.054 174.48 226.037 174.666 226.003 174.824C225.969 174.97 225.924 175.094 225.868 175.196C225.812 175.297 225.744 175.37 225.665 175.415C225.586 175.46 225.502 175.483 225.412 175.483H219.869V181.634C219.869 181.724 219.846 181.803 219.801 181.871C219.756 181.927 219.683 181.978 219.582 182.023C219.492 182.068 219.368 182.107 219.21 182.141C219.052 182.164 218.855 182.175 218.618 182.175C218.393 182.175 218.196 182.164 218.027 182.141C217.869 182.107 217.74 182.068 217.638 182.023C217.548 181.978 217.481 181.927 217.436 181.871C217.39 181.803 217.368 181.724 217.368 181.634V175.483H211.825C211.724 175.483 211.634 175.46 211.555 175.415C211.487 175.37 211.425 175.297 211.369 175.196C211.312 175.094 211.267 174.97 211.234 174.824C211.2 174.666 211.183 174.48 211.183 174.266C211.183 174.063 211.2 173.889 211.234 173.742C211.267 173.585 211.312 173.455 211.369 173.354C211.425 173.252 211.487 173.179 211.555 173.134C211.634 173.089 211.718 173.066 211.808 173.066H217.368V166.915C217.368 166.825 217.39 166.746 217.436 166.679C217.481 166.6 217.548 166.538 217.638 166.493C217.74 166.436 217.869 166.397 218.027 166.374C218.196 166.341 218.393 166.324 218.618 166.324C218.855 166.324 219.052 166.341 219.21 166.374C219.368 166.397 219.492 166.436 219.582 166.493C219.683 166.538 219.756 166.6 219.801 166.679C219.846 166.746 219.869 166.825 219.869 166.915V173.066H225.429C225.519 173.066 225.598 173.089 225.665 173.134C225.744 173.179 225.812 173.252 225.868 173.354C225.936 173.455 225.981 173.585 226.003 173.742C226.037 173.889 226.054 174.063 226.054 174.266Z" fill="white"/>
</g>
<defs>
<clipPath id="clip0_11_59">
<rect width="245.12" height="248.95" fill="white"/>
</clipPath>
</defs>
</svg>
