<svg id="Calque_1" data-name="Calque 1" xmlns="http://www.w3.org/2000/svg" xmlns:xlink="http://www.w3.org/1999/xlink" viewBox="0 0 121.78 63.84"><defs><style>.cls-1{fill:url(#Dégradé_sans_nom_3);}.cls-2{fill:url(#Dégradé_sans_nom_3-2);}.cls-3{fill:url(#Dégradé_sans_nom_3-3);}.cls-4{fill:url(#Dégradé_sans_nom_3-4);}.cls-5{fill:#0072ce;}.cls-6{fill:#003087;}.cls-7{fill:url(#Dégradé_sans_nom_2);}.cls-8{fill:url(#Dégradé_sans_nom_2-2);}</style><linearGradient id="Dégradé_sans_nom_3" x1="41.9" y1="0.62" x2="41.9" y2="22.91" gradientUnits="userSpaceOnUse"><stop offset="0" stop-color="#00a0f0"/><stop offset="1" stop-color="#4884d9"/></linearGradient><linearGradient id="Dégradé_sans_nom_3-2" x1="41.9" y1="0.61" x2="41.9" y2="22.91" xlink:href="#Dégradé_sans_nom_3"/><linearGradient id="Dégradé_sans_nom_3-3" x1="69.52" y1="0.62" x2="69.52" y2="22.94" xlink:href="#Dégradé_sans_nom_3"/><linearGradient id="Dégradé_sans_nom_3-4" x1="69.47" y1="0.61" x2="69.47" y2="22.94" xlink:href="#Dégradé_sans_nom_3"/><linearGradient id="Dégradé_sans_nom_2" x1="14.28" y1="1.06" x2="14.28" y2="23.98" gradientUnits="userSpaceOnUse"><stop offset="0" stop-color="#0072ce"/><stop offset="1" stop-color="#49599f"/></linearGradient><linearGradient id="Dégradé_sans_nom_2-2" x1="107.28" y1="1.61" x2="107.28" y2="20.38" xlink:href="#Dégradé_sans_nom_2"/></defs><title>Sita_Software-RVB</title><path class="cls-1" d="M36.19,4.17a2.93,2.93,0,0,1,3-3h5.38a2.93,2.93,0,0,1,3,3V22.85l0.46,0V4.17A3.38,3.38,0,0,0,44.59.68H39.21a3.39,3.39,0,0,0-3.48,3.48V23.41l0.47,0V4.17Z" transform="translate(-0.05 -0.68)"/><path class="cls-2" d="M46.39,4.39a2,2,0,0,0-2-2H39.37a2,2,0,0,0-2,2V23.33l9-.43V4.39Z" transform="translate(-0.05 -0.68)"/><path class="cls-3" d="M63.81,11.7H55.43a2.93,2.93,0,0,1-3-3V4.16a2.93,2.93,0,0,1,3-3H83.6a2.93,2.93,0,0,1,3,3V8.68a2.93,2.93,0,0,1-3,3H75.23v9.86l0.46,0V12.16H83.6a3.39,3.39,0,0,0,3.48-3.48V4.16A3.38,3.38,0,0,0,83.6.68H55.43A3.38,3.38,0,0,0,52,4.16V8.68a3.38,3.38,0,0,0,3.48,3.48h7.92v10l0.46,0V11.7Z" transform="translate(-0.05 -0.68)"/><path class="cls-4" d="M74.11,10.48h9.25a2,2,0,0,0,2-2.09V4.45a2,2,0,0,0-2-2.09H55.58a2,2,0,0,0-2,2.09V8.39a2,2,0,0,0,2,2.09h9.35V22.05l9.18-.44V10.48Z" transform="translate(-0.05 -0.68)"/><path class="cls-5" d="M47.6,42.42a2.93,2.93,0,0,1-3,3H39.21a2.93,2.93,0,0,1-3-3V23.36l-0.47,0v19a3.38,3.38,0,0,0,3.48,3.48h5.38a3.38,3.38,0,0,0,3.48-3.48V22.79l-0.46,0v19.6Z" transform="translate(-0.05 -0.68)"/><path class="cls-5" d="M37.4,42.21a2,2,0,0,0,2,2h5.06a2,2,0,0,0,2-2V22.87l-9,.43V42.21Z" transform="translate(-0.05 -0.68)"/><path class="cls-5" d="M75.23,42.42a2.93,2.93,0,0,1-3,3H66.82a2.93,2.93,0,0,1-3-3V22l-0.46,0V42.42a3.38,3.38,0,0,0,3.48,3.48h5.39a3.38,3.38,0,0,0,3.48-3.48V21.48l-0.46,0V42.42Z" transform="translate(-0.05 -0.68)"/><path class="cls-5" d="M64.93,42.12a2,2,0,0,0,2,2.08h5.18a2,2,0,0,0,2-2.08V21.55L64.93,22V42.12Z" transform="translate(-0.05 -0.68)"/><path class="cls-6" d="M53.17,56a3.31,3.31,0,0,0-1.35-.86A5.72,5.72,0,0,0,50,54.9a5.11,5.11,0,0,0-1.94.34,3.83,3.83,0,0,0-1.4,1,4.15,4.15,0,0,0-.86,1.53,6.84,6.84,0,0,0-.28,2,7.56,7.56,0,0,0,.27,2.12,3.64,3.64,0,0,0,.8,1.48,3.35,3.35,0,0,0,1.34.87,5.88,5.88,0,0,0,1.89.28,5.14,5.14,0,0,0,1.93-.33,3.62,3.62,0,0,0,1.41-1A4.14,4.14,0,0,0,54,61.67a6.94,6.94,0,0,0,.28-2.07A7.2,7.2,0,0,0,54,57.51,3.83,3.83,0,0,0,53.17,56m-1,4.92a3.08,3.08,0,0,1-.41,1,2.05,2.05,0,0,1-.75.7,2.37,2.37,0,0,1-1.16.26,2.55,2.55,0,0,1-1.16-.23A1.78,1.78,0,0,1,48,62.08a2.88,2.88,0,0,1-.39-1,7.23,7.23,0,0,1-.12-1.37,6.3,6.3,0,0,1,.12-1.24,2.82,2.82,0,0,1,.4-1,2.24,2.24,0,0,1,.76-0.7,2.35,2.35,0,0,1,1.16-.26,2.55,2.55,0,0,1,1.15.24,1.88,1.88,0,0,1,.74.66,3,3,0,0,1,.39,1,6.7,6.7,0,0,1,.12,1.33A6.49,6.49,0,0,1,52.16,61" transform="translate(-0.05 -0.68)"/><path class="cls-6" d="M63.75,55.23a0.4,0.4,0,0,0-.1-0.13,0.16,0.16,0,0,0-.11,0H59.17a0.52,0.52,0,0,0-.56.59v8.42a0.24,0.24,0,0,0,0,.14,0.4,0.4,0,0,0,.16.1,1.16,1.16,0,0,0,.29.06l0.46,0,0.46,0a1.2,1.2,0,0,0,.28-0.06,0.28,0.28,0,0,0,.15-0.1,0.2,0.2,0,0,0,0-.14V60.62h2.86a0.18,0.18,0,0,0,.11,0,0.3,0.3,0,0,0,.08-0.13,0.62,0.62,0,0,0,.06-0.24,2.11,2.11,0,0,0,0-.36,2.17,2.17,0,0,0,0-.36,0.6,0.6,0,0,0-.06-0.23,0.3,0.3,0,0,0-.08-0.12,0.22,0.22,0,0,0-.11,0H60.5V56.61h3a0.15,0.15,0,0,0,.11,0,0.37,0.37,0,0,0,.1-0.13,0.93,0.93,0,0,0,.05-0.23c0-.1,0-0.22,0-0.36s0-.26,0-0.37a1.09,1.09,0,0,0-.05-0.24" transform="translate(-0.05 -0.68)"/><path class="cls-6" d="M121.76,63.27a1.36,1.36,0,0,0,0-.23,0.27,0.27,0,0,0-.1-0.12,0.21,0.21,0,0,0-.12,0h-3.34V60.26H121a0.21,0.21,0,0,0,.12,0,0.3,0.3,0,0,0,.09-0.12,1.09,1.09,0,0,0,.05-0.23c0-.09,0-0.2,0-0.34s0-.25,0-0.34a1,1,0,0,0-.05-0.22,0.39,0.39,0,0,0-.09-0.13,0.21,0.21,0,0,0-.12,0h-2.8V56.55h3.31a0.15,0.15,0,0,0,.11,0,0.42,0.42,0,0,0,.1-0.13,0.84,0.84,0,0,0,0-.23,2.39,2.39,0,0,0,0-.34,2.46,2.46,0,0,0,0-.36,0.9,0.9,0,0,0,0-.23,0.29,0.29,0,0,0-.1-0.13,0.18,0.18,0,0,0-.11,0h-4.64a0.59,0.59,0,0,0-.39.14,0.58,0.58,0,0,0-.16.45v8.1a0.57,0.57,0,0,0,.16.46,0.56,0.56,0,0,0,.39.14h4.67a0.19,0.19,0,0,0,.12,0,0.26,0.26,0,0,0,.1-0.13,1.23,1.23,0,0,0,0-.23,1.44,1.44,0,0,0,0-.34,1.49,1.49,0,0,0,0-.35" transform="translate(-0.05 -0.68)"/><path class="cls-6" d="M41.08,59.88a3.13,3.13,0,0,0-.63-0.53c-0.25-.14-0.49-0.27-0.74-0.39L39,58.64a5.35,5.35,0,0,1-.64-0.33,1.45,1.45,0,0,1-.44-0.4,0.83,0.83,0,0,1-.18-0.53,1.17,1.17,0,0,1,.08-0.4A0.86,0.86,0,0,1,38,56.65a1.12,1.12,0,0,1,.39-0.21,1.79,1.79,0,0,1,.54-0.07,2.35,2.35,0,0,1,.73.1,3.48,3.48,0,0,1,.58.21c0.17,0.07.31,0.16,0.43,0.21a0.54,0.54,0,0,0,.26.11A0.16,0.16,0,0,0,41,57a0.23,0.23,0,0,0,.08-0.13,1.12,1.12,0,0,0,0-.24c0-.1,0-0.21,0-0.35s0-.23,0-0.31a1.35,1.35,0,0,0,0-.21,0.43,0.43,0,0,0,0-.13,0.59,0.59,0,0,0-.1-0.12,0.91,0.91,0,0,0-.29-0.18,2.8,2.8,0,0,0-.51-0.2A4,4,0,0,0,39.57,55a3.55,3.55,0,0,0-.65-0.05,4.39,4.39,0,0,0-1.22.16,2.75,2.75,0,0,0-1,.5,2.37,2.37,0,0,0-.66.83,2.65,2.65,0,0,0-.25,1.18,2.57,2.57,0,0,0,.17,1,2.65,2.65,0,0,0,.45.72,3,3,0,0,0,.63.53,6.76,6.76,0,0,0,.73.39l0.73,0.33a4.84,4.84,0,0,1,.64.33,1.78,1.78,0,0,1,.44.4,0.9,0.9,0,0,1,.17.55,1.15,1.15,0,0,1-.1.49,1,1,0,0,1-.29.38,1.37,1.37,0,0,1-.47.24,2.11,2.11,0,0,1-.61.08,3.3,3.3,0,0,1-.92-0.12,3.66,3.66,0,0,1-.68-0.26,4.18,4.18,0,0,1-.47-0.26,0.61,0.61,0,0,0-.28-0.12,0.18,0.18,0,0,0-.13,0,0.32,0.32,0,0,0-.09.12,1.19,1.19,0,0,0,0,.25,2.43,2.43,0,0,0,0,.38,2.3,2.3,0,0,0,0,.51,0.55,0.55,0,0,0,.13.27,1.41,1.41,0,0,0,.31.21,3,3,0,0,0,.52.23,5.54,5.54,0,0,0,.73.2,5,5,0,0,0,.91.08,4.65,4.65,0,0,0,1.33-.18,3.25,3.25,0,0,0,1.08-.56,2.61,2.61,0,0,0,.74-0.92,2.85,2.85,0,0,0,.27-1.28,2.4,2.4,0,0,0-.18-1,2.33,2.33,0,0,0-.45-0.72" transform="translate(-0.05 -0.68)"/><path class="cls-6" d="M98.3,55.42a1.17,1.17,0,0,0-.11-0.22,0.39,0.39,0,0,0-.2-0.12,1.52,1.52,0,0,0-.39,0c-0.16,0-.39,0-0.68,0a5.53,5.53,0,0,0-.58,0,1.29,1.29,0,0,0-.35,0,0.3,0.3,0,0,0-.17.12,0.69,0.69,0,0,0-.11.19l-2.85,8.25a1.18,1.18,0,0,0-.11.4,0.27,0.27,0,0,0,0,.24,0.42,0.42,0,0,0,.27.1,4.63,4.63,0,0,0,.51,0h0.5a1,1,0,0,0,.29-0.05,0.27,0.27,0,0,0,.15-0.1,1,1,0,0,0,.08-0.17l0.59-1.82h3.49l0.62,1.86a0.56,0.56,0,0,0,.07.16,0.52,0.52,0,0,0,.15.09l0.32,0h0.57a4,4,0,0,0,.55,0,0.39,0.39,0,0,0,.28-0.09,0.26,0.26,0,0,0,.06-0.23,2.34,2.34,0,0,0-.11-0.41Zm-2.72,5.37,1.32-3.94h0l1.3,3.94H95.58Z" transform="translate(-0.05 -0.68)"/><path class="cls-6" d="M89.82,55l-0.49,0-0.52,0a1.15,1.15,0,0,0-.29.06,0.32,0.32,0,0,0-.14.13,1.6,1.6,0,0,0-.05.2L86.7,62.52h0l-1.75-7.07a0.73,0.73,0,0,0-.09-0.23,0.29,0.29,0,0,0-.17-0.13,0.72,0.72,0,0,0-.3-0.06l-0.56,0-0.51,0a1.28,1.28,0,0,0-.31.06,0.33,0.33,0,0,0-.16.13,0.77,0.77,0,0,0-.07.22l-1.7,7.07h0l-1.64-7.12a0.58,0.58,0,0,0-.05-0.21,0.21,0.21,0,0,0-.14-0.12,0.85,0.85,0,0,0-.3,0,4.52,4.52,0,0,0-.53,0l-0.58,0a0.52,0.52,0,0,0-.29.1,0.25,0.25,0,0,0-.09.23,2.25,2.25,0,0,0,.07.41l2.11,8.1a1.16,1.16,0,0,0,.11.28,0.43,0.43,0,0,0,.21.16,1.31,1.31,0,0,0,.39.07l0.67,0,0.63,0A1.13,1.13,0,0,0,82,64.31a0.41,0.41,0,0,0,.2-0.16,1.3,1.3,0,0,0,.11-0.27L83.75,58h0l1.49,5.89a0.79,0.79,0,0,0,.1.28,0.39,0.39,0,0,0,.2.16,1.4,1.4,0,0,0,.39.07l0.65,0,0.61,0a1.4,1.4,0,0,0,.39-0.07,0.5,0.5,0,0,0,.23-0.16,0.85,0.85,0,0,0,.11-0.28l2.13-8.08a3.65,3.65,0,0,0,.08-0.42,0.26,0.26,0,0,0-.07-0.23,0.41,0.41,0,0,0-.25-0.1" transform="translate(-0.05 -0.68)"/><path class="cls-6" d="M111.95,63.51l-0.78-1.83a5.7,5.7,0,0,0-.28-0.59,3.18,3.18,0,0,0-.31-0.46,1.75,1.75,0,0,0-.34-0.35,2.05,2.05,0,0,0-.4-0.25,2.86,2.86,0,0,0,.78-0.36,2.12,2.12,0,0,0,.91-1.21,3,3,0,0,0,0-1.83,2,2,0,0,0-.47-0.74,2.34,2.34,0,0,0-.77-0.5,3.54,3.54,0,0,0-1-.28l-0.43,0h-3a0.6,0.6,0,0,0-.4.14,0.57,0.57,0,0,0-.16.45v8.43a0.19,0.19,0,0,0,0,.13,0.27,0.27,0,0,0,.15.09,1,1,0,0,0,.29.06l0.45,0,0.46,0a1.16,1.16,0,0,0,.29-0.06,0.28,0.28,0,0,0,.15-0.09,0.24,0.24,0,0,0,.05-0.13V60.56h0.58a1.39,1.39,0,0,1,.53.09,1.23,1.23,0,0,1,.41.28,1.82,1.82,0,0,1,.31.46,5.24,5.24,0,0,1,.3.62l0.84,2.08a0.73,0.73,0,0,0,.06.15,0.3,0.3,0,0,0,.15.1,1.14,1.14,0,0,0,.28.05l0.48,0,0.57,0a1.71,1.71,0,0,0,.31,0,0.24,0.24,0,0,0,.14-0.09,0.28,0.28,0,0,0,0-.14,0.74,0.74,0,0,0,0-.19c0-.08-0.07-0.22-0.14-0.4m-2.36-5.16a1.09,1.09,0,0,1-.29.42,1.32,1.32,0,0,1-.51.27,2.17,2.17,0,0,1-.7.1h-1V56.51H108a3.91,3.91,0,0,1,.5,0l0.33,0.05a1.11,1.11,0,0,1,.68.45,1.33,1.33,0,0,1,.21.77,1.25,1.25,0,0,1-.11.55" transform="translate(-0.05 -0.68)"/><path class="cls-6" d="M74.23,55.23a0.4,0.4,0,0,0-.09-0.13,0.19,0.19,0,0,0-.12,0H67.48a0.18,0.18,0,0,0-.12,0,0.39,0.39,0,0,0-.09.13,0.92,0.92,0,0,0-.05.24c0,0.11,0,.23,0,0.37a3.57,3.57,0,0,0,0,.36,0.93,0.93,0,0,0,.05.23,0.34,0.34,0,0,0,.09.13,0.17,0.17,0,0,0,.12,0H69.8v7.48a0.22,0.22,0,0,0,0,.13,0.26,0.26,0,0,0,.15.09,1.11,1.11,0,0,0,.29.06l0.46,0,0.45,0a1.14,1.14,0,0,0,.29-0.06,0.32,0.32,0,0,0,.15-0.09,0.19,0.19,0,0,0,0-.13V56.61H74a0.18,0.18,0,0,0,.12,0,0.35,0.35,0,0,0,.09-0.13,1.82,1.82,0,0,0,.05-0.23c0-.1,0-0.22,0-0.36s0-.26,0-0.37a1.75,1.75,0,0,0-.05-0.24" transform="translate(-0.05 -0.68)"/><path class="cls-7" d="M24.28,21.5a32.66,32.66,0,0,0-3.57-1.72c-1.21-.49-2.41-0.94-3.58-1.36A23.84,23.84,0,0,1,14,17.07a7.65,7.65,0,0,1-2.24-1.66,3.3,3.3,0,0,1-.86-2.32,4.07,4.07,0,0,1,.36-1.68A3.74,3.74,0,0,1,12.31,10a4.89,4.89,0,0,1,1.83-.89,10,10,0,0,1,2.64-.31,14.27,14.27,0,0,1,3.82.47,24.81,24.81,0,0,1,3,1,22.91,22.91,0,0,1,2.12,1,3.07,3.07,0,0,0,1.25.47,1.16,1.16,0,0,0,.63-0.15A1.08,1.08,0,0,0,28,11a5,5,0,0,0,.22-1.2c0-.51.07-1.16,0.07-2s0-1.27-.07-1.72A11.11,11.11,0,0,0,28.06,5a2.43,2.43,0,0,0-.26-0.8,2.16,2.16,0,0,0-.61-0.67,7.67,7.67,0,0,0-1.41-.81,15.13,15.13,0,0,0-2.42-.88,29,29,0,0,0-3.2-.67A23.91,23.91,0,0,0,16.51.87a22.92,22.92,0,0,0-6.78.94A15.24,15.24,0,0,0,4.61,4.45a11.35,11.35,0,0,0-3.23,4.1A12.22,12.22,0,0,0,.27,13.8a12.71,12.71,0,0,0,.82,4.83,10.84,10.84,0,0,0,2.2,3.45A14,14,0,0,0,6.93,24.8l20.37-1a13.5,13.5,0,0,0-3-2.3" transform="translate(-0.05 -0.68)"/><path class="cls-8" d="M121.84,14.3a14.1,14.1,0,0,0-1.08-5.57A10.71,10.71,0,0,0,118,5a14,14,0,0,0-5.41-2.74c-0.16-.06-0.31-0.12-0.48-0.17a24.46,24.46,0,0,0-7.09-1,26.33,26.33,0,0,0-3.81.27,30.81,30.81,0,0,0-3.34.68A15.83,15.83,0,0,0,95.34,3a8.07,8.07,0,0,0-1.47.82,2.13,2.13,0,0,0-.64.68,3,3,0,0,0-.28.82c-0.05.31-.11,0.7-0.16,1.17a16.71,16.71,0,0,0-.07,1.74c0,0.82,0,1.48.07,2A4.91,4.91,0,0,0,93,11.39a1.3,1.3,0,0,0,.26.44,1,1,0,0,0,.3.33,1.29,1.29,0,0,0,.65.16,3.3,3.3,0,0,0,1.31-.47,22.53,22.53,0,0,1,2.22-1,26.77,26.77,0,0,1,3.08-1,15.32,15.32,0,0,1,4-.47,13.43,13.43,0,0,1,3.11.49,5.19,5.19,0,0,1,1.92.9A3.94,3.94,0,0,1,111,12.11a4.69,4.69,0,0,1,.38,2.68,2.77,2.77,0,0,1-1.69,2.33c-2.48.89-7.07,2.33-8.06,2.68l-1.52.53,21.71-1c0-2.53,0-4.45,0-5" transform="translate(-0.05 -0.68)"/><path class="cls-6" d="M9.92,26.25c1.2,0.51,2.38,1,3.53,1.39A26.34,26.34,0,0,1,16.54,29a7.41,7.41,0,0,1,2.19,1.67A3.44,3.44,0,0,1,19.56,33,4.53,4.53,0,0,1,19.11,35a3.88,3.88,0,0,1-1.32,1.48,7,7,0,0,1-2.06.89A10.67,10.67,0,0,1,13,37.7a14.86,14.86,0,0,1-4.32-.58,24.9,24.9,0,0,1-3.34-1.26C4.42,35.42,3.61,35,3,34.64a3.41,3.41,0,0,0-1.46-.56,1.31,1.31,0,0,0-.67.16,1.16,1.16,0,0,0-.45.62,5.15,5.15,0,0,0-.27,1.26,19.94,19.94,0,0,0-.08,2.08,12.34,12.34,0,0,0,.26,3,3.13,3.13,0,0,0,.76,1.48,7.12,7.12,0,0,0,1.57,1,19.62,19.62,0,0,0,2.68,1.05A27.48,27.48,0,0,0,9,45.56a26.89,26.89,0,0,0,4.28.33A25.75,25.75,0,0,0,20.14,45a16.32,16.32,0,0,0,5.51-2.61,12,12,0,0,0,3.6-4.34,13.55,13.55,0,0,0,1.27-6,12.1,12.1,0,0,0-.85-4.72,11,11,0,0,0-2.24-3.42l-0.14-.14-20.44,1a31.42,31.42,0,0,0,3.07,1.49" transform="translate(-0.05 -0.68)"/><path class="cls-6" d="M111.41,33.92s-5.6,4.85-10.41,3c-2.27-.89-3.12-2.67-2.66-4.54a4.51,4.51,0,0,1,1.28-2.09,10.25,10.25,0,0,1,2.81-1.88c1.21-.59,9-3.14,9-3.14v8.69ZM100.17,20.31c-0.76.27-1.52,0.56-2.29,0.86a37.24,37.24,0,0,0-3.73,1.75,13.75,13.75,0,0,0-3.29,2.45,10.87,10.87,0,0,0-2.34,3.46A11.82,11.82,0,0,0,89,39.31c4,8.25,16.64,7.75,22.41,3.92,0,0,4.63,2.15,7.07,2.15,3.36,0,3.37-2.19,3.37-2.61,0,0,0-15.24,0-23.49Z" transform="translate(-0.05 -0.68)"/></svg>